<svg width="180" height="180" viewBox="0 0 180 180" fill="none" xmlns="http://www.w3.org/2000/svg">
<rect x="96" y="148" width="25" height="25" fill="#00AEEF"/>
<rect x="96" y="120" width="25" height="25" fill="#00AEEF"/>
<rect x="96" y="92" width="25" height="25" fill="#00AEEF"/>
<rect x="96" y="36" width="25" height="25" fill="#00AEEF"/>
<rect x="96" y="8" width="25" height="25" fill="#00AEEF"/>
<rect x="124" y="92" width="25" height="25" fill="#00AEEF"/>
<rect x="152" y="92" width="25" height="25" fill="#00AEEF"/>
<rect x="152" y="64" width="25" height="25" fill="#00AEEF"/>
<rect x="152" y="36" width="25" height="25" fill="#00AEEF"/>
<rect x="152" y="8" width="25" height="25" fill="#00AEEF"/>
<rect x="124" y="8" width="25" height="25" fill="#00AEEF"/>
<rect x="59" y="8" width="25" height="25" fill="#00AEEF"/>
<rect x="59" y="64" width="25" height="25" fill="#00AEEF"/>
<rect x="59" y="92" width="25" height="25" fill="#00AEEF"/>
<rect x="31" y="148" width="25" height="25" fill="#00AEEF"/>
<rect x="31" y="8" width="25" height="25" fill="#00AEEF"/>
<rect x="59" y="36" width="25" height="25" fill="#00AEEF"/>
<rect x="59" y="120" width="25" height="25" fill="#00AEEF"/>
<rect x="96" y="64" width="25" height="25" fill="#00AEEF"/>
<path d="M3 36H28V61H3V36Z" fill="#00AEEF"/>
<path d="M3 8H28V33H3V8Z" fill="#00AEEF"/>
<rect x="59" y="148" width="25" height="25" fill="#00AEEF"/>
<rect x="3" y="64" width="25" height="25" fill="#00AEEF"/>
<rect x="31" y="92" width="25" height="25" fill="#00AEEF"/>
<rect x="3" y="148" width="25" height="25" fill="#00AEEF"/>
<rect x="3" y="92" width="25" height="25" fill="#00AEEF"/>
</svg>
